# AST/ASF file generated using VICON BodyLanguage
# -----------------------------------------------
:version 1.10
:name VICON
:units
  mass 1.0
  length 0.45
  angle deg
:documentation
   .ast/.asf automatically generated from VICON data using
   VICON BodyBuilder and BodyLanguage model FoxedUp or BRILLIANT.MOD
:root
   order TX TY TZ RX RY RZ
   axis XYZ
   position 0 0 0  
   orientation 0 0 0 
:bonedata
  begin
     id 1 
     name lhipjoint
     direction 0.576517 -0.752066 0.319413 
     length 2.45433 
     axis 0 0 0  XYZ
  end
  begin
     id 2 
     name lfemur
     direction 0.34202 -0.939693 0  
     length 7.54459  
     axis 0 0 20  XYZ
    dof rx ry rz
    limits (-160.0 20.0)
           (-70.0 70.0)
           (-60.0 70.0)
  end
  begin
     id 3 
     name ltibia
     direction 0.34202 -0.939693 0   
     length 7.73986   
     axis 0 0 20   XYZ
    dof rx
    limits (-10.0 170.0)
  end
  begin
     id 4 
     name lfoot
     direction 0.090693 -0.249177 0.964202   
     length 2.28437   
     axis -90 7.62852e-016 20   XYZ
    dof rx rz
    limits (-45.0 90.0)
           (-70.0 20.0)
  end
  begin
     id 5 
     name ltoes
     direction 1.5356e-011 -4.21928e-011 1   
     length 1.14243   
     axis -90 7.62852e-016 20   XYZ
    dof rx
    limits (-90.0 20.0)
  end
  begin
     id 6 
     name rhipjoint
     direction -0.573937 -0.753736 0.320122   
     length 2.44889  
     axis 0 0 0  XYZ 
  end
  begin
     id 7 
     name rfemur
     direction -0.34202 -0.939693 0   
     length 7.50166   
     axis 0 0 -20   XYZ
    dof rx ry rz
    limits (-160.0 20.0)
           (-70.0 70.0)
           (-70.0 60.0)
  end
  begin
     id 8 
     name rtibia
     direction -0.34202 -0.939693 0   
     length 7.54266   
     axis 0 0 -20   XYZ
    dof rx
    limits (-10.0 170.0)
 end
 begin
     id 9 
     name rfoot
     direction -0.114017 -0.31326 0.942798   
     length 2.34212  
     axis -90 -7.62852e-016 -20   XYZ
    dof rx rz
    limits (-45.0 90.0)
           (-20.0 70.0)
  end
  begin
     id 10 
     name rtoes
     direction -1.53557e-011 -4.21867e-011 1   
     length 1.16246   
     axis -90 -7.62852e-016 -20   XYZ
    dof rx
    limits (-90.0 20.0)
  end
  begin
     id 11 
     name lowerback
     direction -0.0228371 0.999155 -0.034167   
     length 2.0537   
     axis 0 0 0   XYZ
    dof rx ry rz
    limits (-20.0 45.0)
           (-30.0 30.0)
           (-30.0 30.0)
  end
  begin
     id 12 
     name upperback
     direction 0.0198981 0.999794 0.00389455   
     length 2.05302   
     axis 0 0 0   XYZ
    dof rx ry rz
    limits (-20.0 45.0)
           (-30.0 30.0)
           (-30.0 30.0)
  end
  begin
     id 13 
     name thorax
     direction 0.0304566 0.99935 0.0192987   
     length 2.05315   
     axis 0 0 0   XYZ
    dof rx ry rz
    limits (-20.0 45.0)
           (-30.0 30.0)
           (-30.0 30.0)
  end
  begin
     id 14 
     name lowerneck
     direction -0.0196762 0.99417 0.106017   
     length 1.82056   
     axis 0 0 0   XYZ
    dof rx ry rz
    limits (-20.0 45.0)
           (-30.0 30.0)
           (-30.0 30.0)
  end
  begin
     id 15 
     name upperneck
     direction 0.00517787 0.9802 -0.197944   
     length 1.83835   
     axis 0 0 0   XYZ
    dof rx ry rz
    limits (-20.0 45.0)
           (-30.0 30.0)
           (-30.0 30.0)
  end
  begin
     id 16
     name head
     direction 0.00211419 0.996945 -0.078081  
     length 1.85629  
     axis 0 0 0   XYZ
    dof rx ry rz
    limits (-20.0 45.0)
           (-30.0 30.0)
           (-30.0 30.0)
  end
  begin
     id 17 
     name lclavicle
     direction 0.930001 0.365811 -0.0357824  
     length 3.81961  
     axis 0 0 0   XYZ
    dof ry rz
    limits (-20.0 10.0)
           (0.0 20.0)
  end
  begin
     id 18 
     name lhumerus
     direction 1 -4.48968e-011 -3.06644e-027   
     length 5.14507   
     axis 180 -30 -90   XYZ
    dof rx ry rz
    limits (-60.0 90.0)
           (-90.0 90.0)
           (-90.0 90.0)
  end
  begin
     id 19
     name lradius
     direction 1 -4.48965e-011 9.06925e-028   
     length 3.50646   
     axis 180 -30 -90   XYZ
    dof rx
    limits (-10.0 170.0)
  end
  begin
     id 20
     name lwrist
     direction 1 -4.48957e-011 1.03922e-027   
     length 1.75323   
     axis -2.56395e-016 90 90   XYZ
    dof ry
    limits (-180.0 0.0)
 end
  begin
     id 21 
     name lhand
     direction 1 -4.48967e-011 2.08017e-027   
     length 0.629969   
     axis -1.32723e-015 90 90   XYZ
    dof rx rz
    limits (-90.0 90.0)
           (-45.0 45.0)
  end
  begin
     id 22 
     name lfingers
     direction 1 -4.49089e-011 4.20095e-027   
     length 0.507897   
     axis -2.6545e-015 90 90   XYZ
    dof rx
    limits (0.0 90.0)
  end
  begin
     id 23
     name lthumb
     direction 0.707107 -6.35001e-011 0.707107   
     length 0.729241   
     axis -90 45 5.05613e-014   XYZ
    dof rx rz
    limits (-45.0 45.0)
           (-45.0 45.0)
  end
  begin
     id 24 
     name rclavicle
     direction -0.881882 0.464123 -0.0829113   
     length 3.47515  
     axis 0 0 0   XYZ 
    dof ry rz
    limits (-10.0 20.0)
           (-20.0 0.0)
  end
  begin
     id 25 
     name rhumerus
     direction -1 -4.48961e-011 -1.55672e-027  
     length 5.232   
     axis 180 30 90   XYZ
    dof rx ry rz
    limits (-90.0 60.0)
           (-90.0 90.0)
           (-90.0 90.0)
  end
  begin
     id 26 
     name rradius
     direction -1 -4.48963e-011 6.18178e-029   
     length 3.65641   
     axis 180 30 90   XYZ
    dof rx
    limits (-10.0 170.0)
  end
  begin
     id 27 
     name rwrist
     direction -1 -4.48982e-011 1.04136e-027   
     length 1.8282   
     axis -2.56395e-016 -90 -90   XYZ
    dof ry
    limits (-180.0 0.0)
  end
  begin
     id 28
     name rhand
     direction -1 -4.48929e-011 2.07378e-027   
     length 0.656807   
     axis -1.32723e-015 -90 -90   XYZ
    dof rx rz
    limits (-90.0 90.0)
           (-45.0 45.0)
  end
  begin
     id 29
     name rfingers
     direction -1 -4.489e-011 4.13816e-027   
     length 0.529535   
     axis -2.6545e-015 -90 -90   XYZ
    dof rx
    limits (0.0 90.0)
  end
  begin
     id 30
     name rthumb
     direction -0.707107 -6.34843e-011 0.707107   
     length 0.760309   
     axis -90 -45 -5.05613e-014   XYZ
    dof rx rz
    limits (-45.0 45.0)
           (-45.0 45.0)
  end
:hierarchy
  begin
    root lhipjoint rhipjoint lowerback
    lhipjoint lfemur
    lfemur ltibia
    ltibia lfoot
    lfoot ltoes
    rhipjoint rfemur
    rfemur rtibia
    rtibia rfoot
    rfoot rtoes
    lowerback upperback
    upperback thorax
    thorax lowerneck lclavicle rclavicle
    lowerneck upperneck
    upperneck head
    lclavicle lhumerus
    lhumerus lradius
    lradius lwrist
    lwrist lhand lthumb
    lhand lfingers
    rclavicle rhumerus
    rhumerus rradius
    rradius rwrist
    rwrist rhand rthumb
    rhand rfingers
  end

#!OML:ASF H:\ManfredETheater\Project 1\Capture day 1\Session 1\subject.ASF
:FULLY-SPECIFIED
:DEGREES
16
root -1.17722 15.7778 -36.6721 21.8778 0.540967 2.07085
lowerback 19.7688 1.998 -3.22641
upperback 0.757947 1.80068 -0.929631
thorax -10.3512 0.977108 0.309018
lowerneck -17.8145 -3.66084 -2.74686
upperneck 2.8226 -4.5296 3.20949
head 3.8026 -2.09469 1.05693
rclavicle -1.5207e-014 6.16232e-015
rhumerus -39.2422 -1.37668 -87.7333
rradius 70.5352
rwrist -20.3262
rhand -32.3966 -2.4706
rfingers 7.12502
rthumb -5.63167 -32.3758
lclavicle -1.5207e-014 6.16232e-015
lhumerus -43.2978 2.69961 94.3486
lradius 76.127
lwrist 16.2104
lhand -29.4495 -12.0894
lfingers 7.12502
lthumb -2.7858 17.8721
rfemur -31.5592 -13.2297 11.7597
rtibia 88.3117
rfoot -8.29758 -13.9021
rtoes -30.0649
lfemur -55.083 1.44014 -35.4357
ltibia 71.6861
lfoot -31.7904 -4.62224
ltoes 24.0663
17
root -1.14963 15.7133 -36.2257 21.9368 0.524771 2.42966
lowerback 19.7989 1.85831 -3.46086
upperback 0.613076 1.55348 -0.990163
thorax -10.5269 0.873599 0.442063
lowerneck -17.9751 -3.56825 -2.76147
upperneck 2.97355 -4.40911 3.28937
head 3.87291 -2.02795 1.09085
rclavicle -6.95746e-016 1.96797e-014
rhumerus -40.9138 -2.32817 -87.0946
rradius 68.969
rwrist -19.49
rhand -32.7553 -1.95026
rfingers 7.12502
rthumb -5.97801 -31.8459
lclavicle -6.95746e-016 1.96797e-014
lhumerus -41.1179 2.03421 95.4779
lradius 77.1532
lwrist 15.0443
lhand -29.2833 -12.2551
lfingers 7.12502
lthumb -2.62531 17.7085
rfemur -35.9626 -13.813 11.4415
rtibia 90.7465
rfoot -9.85629 -14.1866
rtoes -30.3247
lfemur -53.1896 1.03039 -35.6769
ltibia 71.9541
lfoot -33.6472 -4.11869
ltoes 23.8292
18
root -1.12336 15.6495 -35.7759 21.9966 0.506388 2.75286
lowerback 19.7641 1.68496 -3.67973
upperback 0.475664 1.27031 -1.03037
thorax -10.6553 0.753445 0.601345
lowerneck -18.1696 -3.42076 -2.71392
upperneck 3.11913 -4.22351 3.30959
head 3.94196 -1.93129 1.10211
rclavicle -5.36719e-015 1.98785e-016
rhumerus -42.6658 -3.09995 -86.4229
rradius 67.7717
rwrist -18.2107
rhand -33.0272 -1.2784
rfingers 7.12502
rthumb -6.24049 -31.1665
lclavicle -5.36719e-015 1.98785e-016
lhumerus -39.3719 1.04607 96.6095
lradius 79.0336
lwrist 14.4362
lhand -28.9882 -12.3312
lfingers 7.12502
lthumb -2.34029 17.6358
rfemur -40.4064 -14.2541 11.2303
rtibia 92.7046
rfoot -11.2142 -14.5779
rtoes -30.601
lfemur -51.2277 0.731076 -35.9251
ltibia 72.1011
lfoot -35.3623 -3.67883
ltoes 23.4296
19
root -1.09834 15.5892 -35.3206 22.0398 0.504149 3.04305
lowerback 19.6803 1.47361 -3.88779
upperback 0.354256 0.946063 -1.03485
thorax -10.735 0.61457 0.807184
lowerneck -18.3922 -3.21491 -2.60999
upperneck 3.24852 -3.96505 3.24706
head 4.00513 -1.80267 1.08539
rclavicle 7.25564e-015 -1.09332e-014
rhumerus -44.4941 -3.67837 -85.7215
rradius 67.0231
rwrist -16.8083
rhand -33.1985 -0.544701
rfingers 7.12502
rthumb -6.40587 -30.4278
lclavicle 7.25564e-015 -1.09332e-014
lhumerus -38.0388 -0.270955 97.7308
lradius 81.7352
lwrist 14.6363
lhand -28.5963 -12.3024
lfingers 7.12502
lthumb -1.96182 17.6683
rfemur -44.8075 -14.5379 11.0971
rtibia 94.1278
rfoot -12.3942 -15.048
rtoes -30.8393
lfemur -49.1527 0.526311 -36.159
ltibia 72.0979
lfoot -36.8924 -3.32053
ltoes 22.8914
20
root -1.07333 15.5363 -34.8576 22.0705 0.51659 3.28755
lowerback 19.5481 1.22734 -4.07912
upperback 0.248419 0.588374 -0.986636
thorax -10.766 0.460428 1.07181
lowerneck -18.6426 -2.95243 -2.46973
upperneck 3.36719 -3.63097 3.09158
head 4.06479 -1.64189 1.04098
rclavicle 6.5102e-015 -6.4605e-015
rhumerus -46.387 -4.04453 -84.989
rradius 66.7665
rwrist -15.6089
rhand -33.2851 0.172978
rfingers 7.12502
rthumb -6.48948 -29.7076
lclavicle 6.5102e-015 -6.4605e-015
lhumerus -37.0586 -1.88654 98.8162
lradius 85.1345
lwrist 15.6452
lhand -28.0945 -12.196
lfingers 7.12502
lthumb -1.47721 17.7786
rfemur -49.0965 -14.6472 11.0179
rtibia 94.9496
rfoot -13.36 -15.5571
rtoes -31.0641
lfemur -46.9554 0.408358 -36.3529
ltibia 71.9063
lfoot -38.1723 -3.02992
ltoes 22.0774
21
root -1.04609 15.498 -34.3844 22.0909 0.550417 3.4663
lowerback 19.376 0.948075 -4.22252
upperback 0.158657 0.20781 -0.874411
thorax -10.7515 0.294298 1.38575
lowerneck -18.9367 -2.64347 -2.31544
upperneck 3.495 -3.23004 2.84547
head 4.1311 -1.45358 0.972164
rclavicle -3.72721e-015 -5.46658e-015
rhumerus -48.313 -4.20893 -84.2203
rradius 66.9853
rwrist -14.8603
rhand -33.3004 0.865459
rfingers 7.12502
rthumb -6.50423 -29.0147
lclavicle -3.72721e-015 -5.46658e-015
lhumerus -36.3522 -3.76127 99.8287
lradius 89.0643
lwrist 17.2355
lhand -27.4989 -12.0771
lfingers 7.12502
lthumb -0.901928 17.9007
rfemur -53.1642 -14.5787 10.9683
rtibia 95.0896
rfoot -14.0935 -16.0517
rtoes -31.326
lfemur -44.6262 0.358043 -36.4672
ltibia 71.4913
lfoot -39.1157 -2.85564
ltoes 20.9633
22
root -1.01415 15.4828 -33.8993 22.1052 0.601912 3.55839
lowerback 19.1814 0.645409 -4.28859
upperback 0.0777313 -0.17722 -0.692418
thorax -10.7096 0.123414 1.73211
lowerneck -19.2661 -2.30034 -2.16345
upperneck 3.64469 -2.77546 2.5135
head 4.20847 -1.24473 0.882017
rclavicle 1.13307e-014 -3.47873e-015
rhumerus -50.246 -4.20838 -83.4046
rradius 67.6285
rwrist -14.6645
rhand -33.2604 1.48927
rfingers 7.12502
rthumb -6.46557 -28.392
lclavicle 1.13307e-014 -3.47873e-015
lhumerus -35.8408 -5.84759 100.73
lradius 93.3271
lwrist 18.9887
lhand -26.885 -11.9496
lfingers 7.12502
lthumb -0.309045 18.0299
rfemur -56.8958 -14.3382 10.9225
rtibia 94.4827
rfoot -14.6012 -16.4589
rtoes -31.6391
lfemur -42.169 0.365639 -36.4712
ltibia 70.835
lfoot -39.6324 -2.81161
ltoes 19.4466
23
root -0.976222 15.4915 -33.4017 22.0891 0.654591 3.5618
lowerback 18.9811 0.3356 -4.25697
upperback 0.017541 -0.543222 -0.45267
thorax -10.6383 -0.0431552 2.07885
lowerneck -19.6302 -1.94008 -2.02218
upperneck 3.82601 -2.28859 2.10771
head 4.30164 -1.02578 0.77386
rclavicle 2.13694e-015 -4.07509e-015
rhumerus -52.1465 -4.11904 -82.5225
rradius 68.5917
rwrist -14.9144
rhand -33.1729 2.08579
rfingers 7.12502
rthumb -6.38114 -27.7981
lclavicle 2.13694e-015 -4.07509e-015
lhumerus -35.4584 -8.09355 101.485
lradius 97.7373
lwrist 20.4203
lhand -26.2791 -11.8125
lfingers 7.12502
lthumb 0.276193 18.1671
rfemur -60.1847 -13.9406 10.8316
rtibia 93.1219
rfoot -14.8803 -16.7084
rtoes -32.1347
lfemur -39.5955 0.43244 -36.3664
ltibia 69.9705
lfoot -39.6687 -2.88767
ltoes 17.3414
24
root -0.933864 15.5157 -32.8951 22.0441 0.722262 3.50128
lowerback 18.7941 0.0204111 -4.12571
upperback -0.0292353 -0.890918 -0.169345
thorax -10.5578 -0.205892 2.4093
lowerneck -20.0094 -1.57581 -1.89665
upperneck 4.04766 -1.78602 1.63769
head 4.41175 -0.805116 0.650229
rclavicle -5.96354e-015 5.96354e-016
rhumerus -53.9807 -4.00486 -81.5598
rradius 69.7549
rwrist -15.3894
rhand -33.085 2.62888
rfingers 7.12502
rthumb -6.29625 -27.2575
lclavicle -5.96354e-015 5.96354e-016
lhumerus -35.1617 -10.4226 102.079
lradius 102.127
lwrist 21.1051
lhand -25.7538 -11.7213
lfingers 7.12502
lthumb 0.783513 18.257
rfemur -63.0265 -13.4389 10.6545
rtibia 91.0827
rfoot -14.9683 -16.712
rtoes -32.7894
lfemur -36.9888 0.521694 -36.1696
ltibia 68.9844
lfoot -39.1687 -3.09601
ltoes 14.5855
25
root -0.887613 15.5496 -32.3807 21.9333 0.779289 3.39302
lowerback 18.6585 -0.284834 -3.90097
upperback -0.0555171 -1.20584 0.1363
thorax -10.4847 -0.357951 2.70052
lowerneck -20.3873 -1.2178 -1.78909
upperneck 4.30935 -1.28122 1.11746
head 4.53731 -0.589173 0.51479
rclavicle 1.88845e-015 7.7526e-015
rhumerus -55.7199 -3.92827 -80.5054
rradius 71.0183
rwrist -15.8529
rhand -33.0005 3.09596
rfingers 7.12502
rthumb -6.21466 -26.7929
lclavicle 1.88845e-015 7.7526e-015
lhumerus -34.9277 -12.7502 102.509
lradius 106.379
lwrist 20.8487
lhand -25.3169 -11.6787
lfingers 7.12502
lthumb 1.20553 18.2976
rfemur -65.3723 -12.844 10.3419
rtibia 88.4369
rfoot -14.8848 -16.3825
rtoes -33.6423
lfemur -34.3718 0.648245 -35.9072
ltibia 67.9551
lfoot -38.1171 -3.46298
ltoes 11.2203
26
root -0.838138 15.5895 -31.8596 21.7272 0.82919 3.27889
lowerback 18.5997 -0.579379 -3.60777
upperback -0.0520277 -1.49538 0.442214
thorax -10.424 -0.501946 2.94593
lowerneck -20.7497 -0.870827 -1.69064
upperneck 4.6137 -0.782293 0.553386
head 4.67765 -0.381901 0.367409
rclavicle -1.40143e-014 7.95139e-016
rhumerus -57.3337 -3.92752 -79.3584
rradius 72.2835
rwrist -16.0996
rhand -32.9262 3.53442
rfingers 7.12502
rthumb -6.14296 -26.3565
lclavicle -1.40143e-014 7.95139e-016
lhumerus -34.7442 -14.9829 102.785
lradius 110.423
lwrist 19.729
lhand -24.9621 -11.7336
lfingers 7.12502
lthumb 1.54819 18.2405
rfemur -67.1819 -12.2002 9.84269
rtibia 85.2655
rfoot -14.6534 -15.6341
rtoes -34.7886
lfemur -31.7508 0.794047 -35.6171
ltibia 66.94
lfoot -36.5117 -4.03023
ltoes 7.47777
27
root -0.786315 15.6318 -31.3326 21.4224 0.861378 3.18061
lowerback 18.6169 -0.86132 -3.27237
upperback -0.0210311 -1.76354 0.732731
thorax -10.3784 -0.638558 3.14551
lowerneck -21.0805 -0.535332 -1.60211
upperneck 4.9616 -0.2905 -0.0358802
head 4.8312 -0.183056 0.213955
rclavicle 1.2921e-014 -8.74653e-015
rhumerus -58.8126 -3.99924 -78.1329
rradius 73.5043
rwrist -16.0347
rhand -32.8548 3.91772
rfingers 7.12502
rthumb -6.07402 -25.9752
lclavicle 1.2921e-014 -8.74653e-015
lhumerus -34.6151 -17.0323 102.931
lradius 114.218
lwrist 18.0438
lhand -24.6919 -11.9157
lfingers 7.12502
lthumb 1.8091 18.0564
rfemur -68.4697 -11.5148 9.13648
rtibia 81.6467
rfoot -14.2334 -14.4341
rtoes -36.2477
lfemur -29.1533 0.948539 -35.3207
ltibia 65.9771
lfoot -34.3738 -4.81962
ltoes 3.67154
28
root -0.732557 15.674 -30.8001 21.0314 0.88617 3.10591
lowerback 18.6778 -1.13736 -2.90201
upperback 0.0418535 -2.01945 1.00098
thorax -10.3251 -0.772433 3.29786
lowerneck -21.3856 -0.20955 -1.51119
upperneck 5.35324 0.193985 -0.644791
head 4.99918 0.00764333 0.0541342
rclavicle -1.09332e-014 -6.95746e-015
rhumerus -60.1341 -4.12932 -76.8518
rradius 74.6616
rwrist -15.6808
rhand -32.7797 4.23472
rfingers 7.12502
rthumb -6.00154 -25.6603
lclavicle -1.09332e-014 -6.95746e-015
lhumerus -34.5277 -18.8255 102.974
lradius 117.741
lwrist 16.1725
lhand -24.4485 -12.1905
lfingers 7.12502
lthumb 2.04424 17.7795
rfemur -69.2625 -10.806 8.23212
rtibia 77.6608
rfoot -13.5567 -12.775
rtoes -38.0073
lfemur -26.6014 1.07351 -35.0218
ltibia 65.0831
lfoot -31.77 -5.78299
ltoes 0.201533
